<?xml version="1.0" encoding="UTF-8"?>
<svg xmlns="http://www.w3.org/2000/svg" xmlns:xlink="http://www.w3.org/1999/xlink" width="60pt" height="60pt" viewBox="0 0 60 60" version="1.1">
<g id="surface987733">
<path style=" stroke:none;fill-rule:nonzero;fill:rgb(99.607843%,77.647059%,24.313725%);fill-opacity:1;" d="M 18 50 L 8 50 L 8 20 L 18 20 Z M 13.003906 16 C 10.234375 16 8 13.757812 8 10.996094 C 8 8.238281 10.238281 6 13.003906 6 C 15.757812 6 18 8.242188 18 10.996094 C 18 13.757812 15.757812 16 13.003906 16 Z M 54 50 L 44.386719 50 L 44.386719 35.398438 C 44.386719 31.917969 44.320312 27.441406 39.386719 27.441406 C 34.382812 27.441406 33.613281 31.230469 33.613281 35.148438 L 33.613281 50 L 24 50 L 24 19.976562 L 33.226562 19.976562 L 33.226562 24.078125 L 33.359375 24.078125 C 34.640625 21.71875 37.78125 19.230469 42.460938 19.230469 C 52.199219 19.230469 54 25.449219 54 33.535156 Z M 54 50 "/>
</g>
</svg>
